<svg xmlns="http://www.w3.org/2000/svg" width="25" height="25" viewBox="0 0 25 25">
    <g fill="none" fill-rule="evenodd">
        <g fill="#EC008C">
            <g>
                <g>
                    <path stroke="#EC008C" stroke-width=".1" d="M18.031 21.51c-2.238 0-4.06-1.786-4.06-3.982 0-2.195 1.822-3.98 4.06-3.98 2.238 0 4.06 1.785 4.06 3.98 0 2.196-1.822 3.982-4.06 3.982m-5.359-3.087c-.757.209-1.553.328-2.378.328-4.866 0-8.825-3.882-8.825-8.655 0-1.243.28-2.467.834-3.638L2.3 6.451c1.294-2.72 3.977-4.618 7-4.952l.188-.019c.304-.027.56-.04.805-.04.246 0 .502.013.81.041l.183.018c3.024.334 5.706 2.232 7 4.952l-.001.007c.553 1.17.833 2.394.833 3.638 0 .747-.107 1.468-.29 2.16-.26-.038-.526-.064-.798-.064-3 0-5.441 2.394-5.441 5.336 0 .306.032.604.083.896 0 0 0 0 0 0m7.575-5.764l.005-.018c.025-.09.05-.18.071-.27l.068-.326c.016-.075.032-.151.046-.227.012-.069.021-.137.03-.205 0 0 .046-.301.053-.36l.018-.201.018-.205.014-.17c.01-.192.017-.387.017-.582 0-.263-.015-.55-.046-.88 0 0-.017-.197-.025-.26-.028-.236-.064-.47-.11-.704-.032-.17-.07-.336-.111-.502l-.035-.134C19.229 3.631 15.746.606 11.594.09l-.061-.01c-.131-.014-.264-.027-.398-.038C10.814.014 10.546 0 10.294 0c-.253 0-.52.014-.842.042-.134.01-.265.024-.397.039l-.06.009C4.84.606 1.358 3.632.327 7.619l-.034.13c-.04.166-.08.333-.112.503-.046.233-.082.468-.11.704-.008.068-.025.26-.025.26-.032.34-.046.62-.046.88 0 .195.006.39.017.582l.015.18.016.183c.005.071.011.142.02.212.006.06.072.504.082.565.015.08.032.161.05.242l.035.171c.009.047.018.094.029.14.024.101.052.201.08.3l.065.243c.032.11.069.218.106.326l.067.202c.047.13.099.258.15.385l.052.132c.057.135.12.267.182.397l.048.106c.068.137.14.27.213.404l.044.083c.078.14.16.276.245.41l.036.062c.09.141.184.279.28.414l.028.04c.1.142.205.279.33.438.113.14.23.278.354.419.12.136.246.268.376.4.256.258.658.625.942.856l-.135.084C1.661 19.535 1.41 22.099 1.4 22.212c-.015.192.047.378.175.524.128.146.306.234.504.25l.047.002h.074c.38 0 .702-.293.731-.665.002-.026.205-2.347 2.105-3.323.015-.007.204-.114.204-.114.934.513 1.978.897 3.045 1.11.192.037.386.067.581.095l.078.012c.186.024.374.04.565.055l.105.01c.225.015.452.023.68.023.23 0 .457-.008.682-.023l.106-.01c.19-.014.378-.03.564-.055l.078-.012c.195-.028.39-.058.603-.1.266-.054.53-.117.79-.19.872 1.807 2.745 3.063 4.915 3.063 3 0 5.44-2.394 5.44-5.337 0-2.167-1.326-4.033-3.223-4.868" transform="translate(-320 -212) translate(320 212) translate(1 1)"/>
                    <path stroke="#EC008C" stroke-width=".1" d="M20.114 16.79h-1.33v-1.305c0-.4-.323-.727-.73-.75v-.002h-.046v.001c-.406.024-.73.352-.73.751v1.306h-1.33c-.408 0-.741.316-.766.714h-.001v.046h0c.026.398.36.716.766.716h1.332v1.305c0 .4.323.727.73.75v.001h.045c.407-.024.73-.352.73-.751v-1.305h1.33c.408 0 .741-.318.766-.716h0v-.046h0c-.025-.398-.358-.714-.766-.714M11.281 12.334c-.215.032-.423.049-.617.049-.596 0-1.09-.151-1.51-.461-.383-.283-.695-.694-.926-1.223l.112-.178c1.738-.104 4.039-.438 5.255-.627l.15.142c-.09.73-.53 2.002-2.464 2.298m3.157-.198c1.034-1.405.756-3.157.744-3.23-.032-.188-.14-.36-.3-.469-.125-.087-.271-.133-.424-.133-.041 0-.083.003-.123.01-.044.008-4.668.8-6.894.8-.074 0-.146 0-.207-.003-.232.006-.434.09-.569.238-.143.156-.21.364-.183.572.01.082.285 2.04 1.788 3.151.677.498 1.482.752 2.392.752.27 0 .555-.023.845-.068 1.299-.198 2.285-.743 2.931-1.62" transform="translate(-320 -212) translate(320 212) translate(1 1)"/>
                    <path d="M7.956 6.867c.525 0 .95-.418.95-.932s-.425-.932-.95-.932c-.524 0-.95.418-.95.932s.426.932.95.932M12.103 6.867c.524 0 .95-.418.95-.932s-.426-.932-.95-.932-.95.418-.95.932.426.932.95.932" transform="translate(-320 -212) translate(320 212) translate(1 1)"/>
                </g>
            </g>
        </g>
    </g>
</svg>
