<svg width="28" height="46" viewBox="0 0 28 46" xmlns="http://www.w3.org/2000/svg">
    <g fill="#999" fill-rule="evenodd">
        <path d="M19.272 7.191a2.113 2.113 0 0 1-2.11-2.11c0-1.165.946-2.112 2.11-2.112s2.111.947 2.111 2.111a2.113 2.113 0 0 1-2.11 2.111zM2.116 4.084a.997.997 0 0 0 0 1.992h13.175a4.11 4.11 0 0 0 3.981 3.108 4.11 4.11 0 0 0 3.981-3.108h2.711a.997.997 0 0 0 0-1.992h-2.71A4.11 4.11 0 0 0 19.271.976a4.11 4.11 0 0 0-3.98 3.108H2.115zM8.71 15.591a2.113 2.113 0 0 1-2.111-2.11c0-1.165.947-2.112 2.11-2.112 1.165 0 2.111.947 2.111 2.111a2.113 2.113 0 0 1-2.11 2.111zm-6.594-3.107a.997.997 0 0 0 0 1.992h2.612a4.11 4.11 0 0 0 3.981 3.108 4.11 4.11 0 0 0 3.982-3.108h13.273a.997.997 0 0 0 0-1.992H12.69a4.11 4.11 0 0 0-3.98-3.108 4.11 4.11 0 0 0-3.981 3.108H2.116zM13.434 24.925a2.113 2.113 0 0 1-2.111-2.111c0-1.164.947-2.111 2.11-2.111 1.165 0 2.112.947 2.112 2.11a2.113 2.113 0 0 1-2.111 2.112zM2.116 21.817a.997.997 0 0 0 0 1.992h7.337a4.11 4.11 0 0 0 3.98 3.108 4.11 4.11 0 0 0 3.982-3.108h8.55a.997.997 0 0 0 0-1.992h-8.55a4.11 4.11 0 0 0-3.981-3.107 4.11 4.11 0 0 0-3.981 3.107H2.116z"/>
        <g font-family="PingFangTC-Medium, PingFang TC" font-size="11" font-weight="400" letter-spacing="1">
            <text transform="translate(2 29)">
                            <tspan x="0" y="12">設定</tspan>
                        </text>
        </g>
    </g>
</svg>
