<svg width="28" height="46" viewBox="0 0 28 46" xmlns="http://www.w3.org/2000/svg">
    <defs>
        <linearGradient x1="24.088%" y1="24.25%" x2="114.535%" y2="112.721%" id="hg9wc1kqia">
            <stop stop-color="#EC008C" offset="0%"/>
            <stop stop-color="#FF4747" offset="76.019%"/>
            <stop stop-color="#FFDE03" offset="100%"/>
        </linearGradient>
        <linearGradient x1="24.226%" y1="24.225%" x2="114.191%" y2="112.782%" id="27kexluppb">
            <stop stop-color="#EC008C" offset="0%"/>
            <stop stop-color="#FF4747" offset="76.019%"/>
            <stop stop-color="#FFDE03" offset="100%"/>
        </linearGradient>
        <linearGradient x1="24.088%" y1="24.225%" x2="114.535%" y2="112.782%" id="pxva0scaoc">
            <stop stop-color="#EC008C" offset="0%"/>
            <stop stop-color="#FF4747" offset="76.019%"/>
            <stop stop-color="#FFDE03" offset="100%"/>
        </linearGradient>
        <linearGradient x1="24.088%" y1="38.992%" x2="114.535%" y2="76.814%" id="gls6ci5iqd">
            <stop stop-color="#EC008C" offset="0%"/>
            <stop stop-color="#FF4747" offset="76.019%"/>
            <stop stop-color="#FFDE03" offset="100%"/>
        </linearGradient>
    </defs>
    <g fill="none" fill-rule="evenodd">
        <path d="M22.81 3.295a.964.964 0 1 0 0 1.928.964.964 0 0 0 0-1.928M19.724 3.295a.964.964 0 1 0 0 1.928.964.964 0 0 0 0-1.928M16.639 3.295a.964.964 0 1 0 0 1.928.964.964 0 0 0 0-1.928" fill="url(#hg9wc1kqia)" transform="translate(.56 .56)"/>
        <path d="M25.213 5.635c0 .753-.613 1.366-1.365 1.366h-4.124c-.324 0-.639.096-.979.33l-1.183.996.022-.146a.986.986 0 0 0-.198-.802.991.991 0 0 0-.782-.378h-1.003a1.367 1.367 0 0 1-1.366-1.366V3.046c0-.753.614-1.366 1.366-1.366h8.247c.752 0 1.365.613 1.365 1.366v2.59zm-15.088 16.71c-4.656 0-8.445-3.789-8.445-8.445 0-4.657 3.789-8.445 8.445-8.445.767 0 1.528.103 2.26.305.062.018.123.011.184.013a3.042 3.042 0 0 0 3.032 2.908h.206l-.248 1.6a.84.84 0 0 0 1.37.771l.84-.705c.516 1.11.8 2.32.8 3.553 0 4.656-3.788 8.445-8.444 8.445zM23.848 0H15.6a3.05 3.05 0 0 0-3.046 3.046v1.039a10.133 10.133 0 0 0-2.43-.31C4.542 3.775 0 8.317 0 13.9a10.11 10.11 0 0 0 3.703 7.821c-2.035 1.497-2.272 4.214-2.282 4.34a.841.841 0 0 0 1.675.127c.002-.024.205-2.428 1.98-3.357.047-.024.078-.065.118-.096a10.054 10.054 0 0 0 9.898-.023c.048.041.088.089.146.119 1.75.916 1.977 3.314 1.98 3.36a.84.84 0 0 0 1.676-.13c-.01-.127-.25-2.874-2.317-4.366A10.106 10.106 0 0 0 20.25 13.9c0-1.63-.41-3.229-1.158-4.665l.66-.554h4.096a3.05 3.05 0 0 0 3.045-3.046V3.046A3.05 3.05 0 0 0 23.848 0z" fill="url(#27kexluppb)" transform="translate(.56 .56)"/>
        <path d="M8.368 10.829a1.05 1.05 0 1 0 0-2.1 1.05 1.05 0 0 0 0 2.1M12.395 10.829a1.05 1.05 0 1 0 0-2.1 1.05 1.05 0 0 0 0 2.1" fill="url(#pxva0scaoc)" transform="translate(.56 .56)"/>
        <path d="M11.156 15.606c-.512.386-1.157.51-1.97.384-1.725-.269-2.19-1.356-2.287-2.165 1.245.198 3.447.52 5.115.622-.17.399-.44.845-.858 1.16m1.945-2.809c-2.044.055-6.828-.778-6.877-.788a.838.838 0 0 0-.972.69c-.012.075-.295 1.853.745 3.295.648.896 1.633 1.453 2.93 1.655.29.045.57.068.84.068.916 0 1.72-.258 2.4-.77 1.509-1.136 1.776-3.121 1.787-3.205a.844.844 0 0 0-.21-.668.881.881 0 0 0-.643-.277" fill="url(#gls6ci5iqd)" transform="translate(.56 .56)"/>
        <g fill="#EC008C" font-family="PingFangTC-Medium, PingFang TC" font-size="11" font-weight="400" letter-spacing="1">
            <text transform="translate(2 29)">
                            <tspan x="0" y="12">朋友</tspan>
                        </text>
        </g>
    </g>
</svg>
