<svg width="24" height="24" viewBox="0 0 24 24" xmlns="http://www.w3.org/2000/svg">
    <g fill="none" fill-rule="evenodd">
        <g fill="#FFF">
            <path d="M12.579 13.584c-.666.523-1.36.691-2.063.502a2.522 2.522 0 0 1-.925-.475.583.583 0 0 0-.785.863 3.6 3.6 0 0 0 1.347.722c.263.076.576.132.924.132.648 0 1.42-.196 2.222-.825a.584.584 0 0 0-.72-.919"/>
            <path d="M9.12 10.826a.554.554 0 0 0 .407-.081.534.534 0 0 0 .23-.35.557.557 0 0 0-.08-.407.534.534 0 0 0-.452-.24.534.534 0 0 0-.537.44.557.557 0 0 0 .082.407c.08.12.207.205.35.231M12.741 10.822a.554.554 0 0 0 .407-.081.534.534 0 0 0 .232-.35.557.557 0 0 0-.081-.407.534.534 0 0 0-.452-.24.535.535 0 0 0-.536.437.536.536 0 0 0 .08.41c.08.12.208.205.35.23" stroke="#FFF" stroke-width=".4"/>
            <path d="M10.72 5.407a6.53 6.53 0 0 1 3.596 1.073 2.029 2.029 0 0 0-.91 1.065 5.173 5.173 0 1 0 2.48 4.117c.367.385.887.625 1.463.625l-.077-.004a6.56 6.56 0 1 1-6.552-6.876z" fill-rule="nonzero"/>
            <path d="M17.996 7.606h1.362a.642.642 0 1 1 0 1.285h-1.362v1.361a.648.648 0 0 1-1.295 0V8.891h-1.392a.642.642 0 0 1 0-1.285H16.7V6.214a.648.648 0 1 1 1.295 0v1.392z"/>
        </g>
    </g>
</svg>
