<svg width="28" height="46" viewBox="0 0 28 46" xmlns="http://www.w3.org/2000/svg">
    <g fill="#999" fill-rule="evenodd">
        <path d="M5.183 6.163h.885v-.886a.905.905 0 0 1 1.81 0v.886h.885a.905.905 0 0 1 0 1.809h-.885v.886a.905.905 0 0 1-1.81 0v-.886h-.885a.905.905 0 0 1 0-1.81"/>
        <path d="M6.973 11.25a4.18 4.18 0 0 1-4.175-4.174A4.18 4.18 0 0 1 6.973 2.9a4.18 4.18 0 0 1 4.175 4.176 4.184 4.184 0 0 1-4.175 4.175m0-10.223a6.049 6.049 0 0 0-6.04 6.04 6.049 6.049 0 0 0 6.04 6.039 6.049 6.049 0 0 0 6.04-6.04 6.049 6.049 0 0 0-6.04-6.04M18.285 7.067c0-.5.405-.904.905-.904h3.58a.905.905 0 0 1 0 1.809h-3.58a.905.905 0 0 1-.905-.905"/>
        <path d="M20.98 11.25a4.18 4.18 0 0 1-4.175-4.174A4.18 4.18 0 0 1 20.98 2.9a4.18 4.18 0 0 1 4.175 4.176 4.184 4.184 0 0 1-4.175 4.175m0-10.223a6.049 6.049 0 0 0-6.04 6.04 6.049 6.049 0 0 0 6.04 6.039 6.049 6.049 0 0 0 6.04-6.04 6.049 6.049 0 0 0-6.04-6.04M19.19 20.57h3.58a.905.905 0 0 0 0-1.81h-3.58a.905.905 0 0 0 0 1.81M22.77 21.425h-3.58a.905.905 0 0 0 0 1.81h3.58a.905.905 0 0 0 0-1.81"/>
        <path d="M20.98 25.18a4.18 4.18 0 0 1-4.175-4.174 4.18 4.18 0 0 1 4.175-4.175 4.18 4.18 0 0 1 4.175 4.175 4.184 4.184 0 0 1-4.175 4.175m0-10.223a6.049 6.049 0 0 0-6.04 6.04 6.049 6.049 0 0 0 6.04 6.04 6.049 6.049 0 0 0 6.04-6.04 6.049 6.049 0 0 0-6.04-6.04M6.973 25.18a4.18 4.18 0 0 1-4.175-4.174 4.18 4.18 0 0 1 4.175-4.175 4.18 4.18 0 0 1 4.175 4.175 4.184 4.184 0 0 1-4.175 4.175m0-10.223a6.049 6.049 0 0 0-6.04 6.04 6.049 6.049 0 0 0 6.04 6.04 6.049 6.049 0 0 0 6.04-6.04 6.049 6.049 0 0 0-6.04-6.04"/>
        <path d="m5.068 21.624.626-.626-.626-.627a.905.905 0 0 1 1.279-1.279l.626.626.626-.626a.905.905 0 0 1 1.28 1.28l-.627.626.627.626a.905.905 0 0 1-1.28 1.28l-.626-.627-.626.626a.905.905 0 0 1-1.28-1.28"/>
        <g font-family="PingFangTC-Medium, PingFang TC" font-size="11" font-weight="400" letter-spacing="1">
            <text transform="translate(2 29)">
                            <tspan x="0" y="12">記帳</tspan>
                        </text>
        </g>
    </g>
</svg>
