<svg width="28" height="46" viewBox="0 0 28 46" xmlns="http://www.w3.org/2000/svg">
    <g fill="#999" fill-rule="evenodd">
        <path d="M13.966 18.777c-3.805 0-9.003-1.473-10.678-3.666-.455-.595-.594-1.185-.426-1.804.134-.488.361-.659.52-.744.852-.458 2.74.049 4.204.514.294 2.428 2.632 3.86 6.38 3.86 3.747 0 6.085-1.432 6.38-3.86 1.462-.465 3.35-.971 4.203-.514.159.085.386.256.52.744.168.619.03 1.209-.426 1.804-1.674 2.193-6.873 3.666-10.677 3.666zm0 6.909c-5.156-.115-6.35-1.182-6.594-1.506-.558-.745-1.75-3.336-2.81-5.767 2.677 1.421 6.383 2.224 9.404 2.224 3.02 0 6.726-.803 9.403-2.224-1.06 2.431-2.251 5.022-2.81 5.767-.243.324-1.438 1.39-6.593 1.506zm4.552-13.143c0 2.287-3.184 2.533-4.552 2.533-1.37 0-4.553-.246-4.553-2.533 0-1.834 1.957-3.216 4.553-3.216 2.595 0 4.552 1.382 4.552 3.216zm6.91-1.62c-1.342-.72-3.17-.376-5.265.264-.713-2.193-3.14-3.72-6.197-3.72-3.058 0-5.485 1.527-6.198 3.72-2.095-.64-3.923-.984-5.265-.263-.714.383-1.197 1.02-1.435 1.894a3.663 3.663 0 0 0 .119 2.324c.331.875 3.47 8.517 4.697 10.154 1.05 1.4 3.762 2.156 8.061 2.25 4.34-.094 7.052-.85 8.102-2.25 1.227-1.637 4.366-9.28 4.72-10.145.267-.76.31-1.546.096-2.333-.238-.874-.72-1.51-1.435-1.894zM6.1 4.003c1.665 0 1.765 1.476 1.769 1.768v.003c.002.003.002.009 0 .009v.006a.59.59 0 0 0 1.178-.015c.003-.297.106-1.771 1.768-1.771H10.833a.59.59 0 0 0-.015-1.179c-.297-.003-1.77-.106-1.77-1.768a.59.59 0 1 0-1.18 0c0 1.662-1.473 1.765-1.77 1.768A.59.59 0 0 0 6.1 4.003M20.19 7.27c1.664 0 1.765 1.476 1.768 1.768v.003c.003.003.003.009 0 .009v.006a.59.59 0 0 0 1.178-.015c.003-.298.106-1.771 1.769-1.771h.017a.59.59 0 0 0-.015-1.18c-.297-.002-1.77-.105-1.77-1.767a.59.59 0 1 0-1.18 0c0 1.662-1.473 1.765-1.77 1.768a.59.59 0 0 0 .002 1.179"/>
        <g font-family="PingFangTC-Medium, PingFang TC" font-size="11" font-weight="400" letter-spacing="1">
            <text transform="translate(2 29)">
                            <tspan x="0" y="12">錢錢</tspan>
                        </text>
        </g>
    </g>
</svg>
